<?xml version="1.0" encoding="UTF-8" standalone="no"?>
<!-- Created with Inkscape (http://www.inkscape.org/) -->

<svg
   xmlns:dc="http://purl.org/dc/elements/1.1/"
   xmlns:cc="http://creativecommons.org/ns#"
   xmlns:rdf="http://www.w3.org/1999/02/22-rdf-syntax-ns#"
   xmlns:svg="http://www.w3.org/2000/svg"
   xmlns="http://www.w3.org/2000/svg"
   xmlns:sodipodi="http://sodipodi.sourceforge.net/DTD/sodipodi-0.dtd"
   xmlns:inkscape="http://www.inkscape.org/namespaces/inkscape"
   width="28"
   height="39.000057"
   viewBox="0 0 7.4083332 10.318766"
   version="1.1"
   id="svg1945"
   inkscape:version="0.92.4 (5da689c313, 2019-01-14)"
   sodipodi:docname="select.svg">
  <defs
     id="defs1939" />
  <sodipodi:namedview
     id="base"
     pagecolor="#ffffff"
     bordercolor="#666666"
     borderopacity="1.0"
     inkscape:pageopacity="0.0"
     inkscape:pageshadow="2"
     inkscape:zoom="5.6"
     inkscape:cx="18.446433"
     inkscape:cy="-11.4641"
     inkscape:document-units="mm"
     inkscape:current-layer="g347"
     showgrid="false"
     units="px"
     fit-margin-top="1"
     fit-margin-left="1"
     fit-margin-right="1"
     fit-margin-bottom="1"
     inkscape:window-width="724"
     inkscape:window-height="815"
     inkscape:window-x="762"
     inkscape:window-y="109"
     inkscape:window-maximized="0" />
  <metadata
     id="metadata1942">
    <rdf:RDF>
      <cc:Work
         rdf:about="">
        <dc:format>image/svg+xml</dc:format>
        <dc:type
           rdf:resource="http://purl.org/dc/dcmitype/StillImage" />
        <dc:title></dc:title>
      </cc:Work>
    </rdf:RDF>
  </metadata>
  <g
     inkscape:label="Layer 1"
     inkscape:groupmode="layer"
     id="layer1"
     transform="translate(-25.355105,-141.20516)">
    <g
       transform="matrix(0.26458333,0,0,0.26458333,-172.37604,103.0056)"
       id="g347"
       style="filter:url(#filter16_d)">
      <g
         transform="translate(-296.17066,-43.623836)"
         id="g281">
        <path
           d="m 1048,219 v -29 l 19,20 h -8 l 7,11 -7,4 -5,-12 z"
           id="path277"
           inkscape:connector-curvature="0"
           style="fill:#ebebeb" />
        <path
           d="m 1048,190 0.72,-0.689 c -0.28,-0.296 -0.71,-0.391 -1.09,-0.24 -0.38,0.152 -0.63,0.52 -0.63,0.929 z m 0,29 h -1 c 0,0.404 0.24,0.769 0.62,0.924 0.37,0.155 0.8,0.069 1.09,-0.217 z m 6,-6 0.92,-0.385 c -0.13,-0.308 -0.4,-0.531 -0.73,-0.596 -0.32,-0.065 -0.66,0.038 -0.9,0.274 z m 5,12 -0.92,0.385 c 0.11,0.264 0.33,0.469 0.6,0.562 0.27,0.092 0.57,0.064 0.82,-0.079 z m 7,-4 0.5,0.868 c 0.23,-0.135 0.41,-0.362 0.47,-0.628 0.07,-0.265 0.02,-0.546 -0.13,-0.777 z m -7,-11 v -1 c -0.36,0 -0.7,0.199 -0.88,0.519 -0.17,0.32 -0.16,0.71 0.04,1.018 z m 8,0 v 1 c 0.4,0 0.76,-0.238 0.92,-0.606 0.16,-0.367 0.08,-0.793 -0.19,-1.083 z m -20,-20 v 29 h 2 v -29 z m 1.71,29.707 6,-6 -1.42,-1.414 -6,6 z m 4.37,-6.322 5,12 1.84,-0.77 -5,-12 z m 6.42,12.483 7,-4 -1,-1.736 -7,4 z m 7.34,-5.405 -7,-11 -1.68,1.074 7,11 z M 1059,211 h 8 v -2 h -8 z m 8.73,-1.689 -19.01,-20 -1.44,1.378 18.99,20 z"
           id="path279"
           inkscape:connector-curvature="0"
           style="fill:#000000" />
      </g>
    </g>
  </g>
</svg>
