<?xml version="1.0" encoding="UTF-8" standalone="no"?>
<svg
   xmlns:dc="http://purl.org/dc/elements/1.1/"
   xmlns:cc="http://creativecommons.org/ns#"
   xmlns:rdf="http://www.w3.org/1999/02/22-rdf-syntax-ns#"
   xmlns:svg="http://www.w3.org/2000/svg"
   xmlns="http://www.w3.org/2000/svg"
   xmlns:sodipodi="http://sodipodi.sourceforge.net/DTD/sodipodi-0.dtd"
   xmlns:inkscape="http://www.inkscape.org/namespaces/inkscape"
   width="280px"
   height="390px"
   viewBox="0 0 280 390"
   version="1.1"
   id="svg7"
   sodipodi:docname="select.svg"
   inkscape:version="0.92.4 (5da689c313, 2019-01-14)">
  <metadata
     id="metadata13">
    <rdf:RDF>
      <cc:Work
         rdf:about="">
        <dc:format>image/svg+xml</dc:format>
        <dc:type
           rdf:resource="http://purl.org/dc/dcmitype/StillImage" />
      </cc:Work>
    </rdf:RDF>
  </metadata>
  <defs
     id="defs11" />
  <sodipodi:namedview
     pagecolor="#ffffff"
     bordercolor="#666666"
     borderopacity="1"
     objecttolerance="10"
     gridtolerance="10"
     guidetolerance="10"
     inkscape:pageopacity="0"
     inkscape:pageshadow="2"
     inkscape:window-width="724"
     inkscape:window-height="480"
     id="namedview9"
     showgrid="false"
     inkscape:zoom="4.8410256"
     inkscape:cx="232.81619"
     inkscape:cy="75.807114"
     inkscape:window-x="0"
     inkscape:window-y="0"
     inkscape:window-maximized="0"
     inkscape:current-layer="surface1" />
  <g
     id="surface1"
     style="stroke:none">
    <path
       style="fill:#000000;fill-opacity:1;fill-rule:nonzero;stroke:none"
       d="m 44.9375,10 c -1.224365,0.0049 -2.460693,0.23584 -3.648438,0.707031 C 37.488281,12.230469 34.988281,15.910156 34.988281,20 v 290 c 0,4.03906 2.402344,7.6875 6.203125,9.23828 3.699219,1.55078 8,0.69141 10.898438,-2.17187 l 49.439456,-49.43946 44.25976,106.22071 c 1.10156,2.64062 3.30078,4.6914 6,5.62109 2.69922,0.91797 5.69922,0.64062 8.19922,-0.78906 l 70,-40 c 2.30078,-1.35157 4.10156,-3.6211 4.70313,-6.28125 0.69922,-2.64844 0.19922,-5.46094 -1.30079,-7.76953 C 213.31775,293.08593 193.2448,261.54296 173.17188,230 h 61.8164 c 4,0 7.60156,-2.38281 9.20313,-6.0625 1.59765,-3.66797 0.79687,-7.92969 -1.90235,-10.82812 L 52.191406,13.109375 C 50.265869,11.073731 47.631103,9.989237 44.9375,10 Z M 54.988281,45 211.6582,210 h -56.66992 c -3.59765,0 -7,1.98828 -8.79687,5.1875 -1.70313,3.19922 -1.60157,7.10156 0.39843,10.17969 l 64.34961,101.12109 -51.10547,29.20117 -45.64257,-109.54101 c -1.30078,-3.08203 -3.99999,-5.3086 -7.30079,-5.96094 -3.1992,-0.64844 -6.60156,0.37891 -8.999995,2.74219 l -42.902344,42.90234 z"
       id="path4"
       inkscape:connector-curvature="0"
       sodipodi:nodetypes="scssccccccccccscccsccsccccccccc" />
  </g>
</svg>
