<?xml version="1.0" encoding="UTF-8" standalone="no"?>
<svg
   xmlns:dc="http://purl.org/dc/elements/1.1/"
   xmlns:cc="http://creativecommons.org/ns#"
   xmlns:rdf="http://www.w3.org/1999/02/22-rdf-syntax-ns#"
   xmlns:svg="http://www.w3.org/2000/svg"
   xmlns="http://www.w3.org/2000/svg"
   xmlns:sodipodi="http://sodipodi.sourceforge.net/DTD/sodipodi-0.dtd"
   xmlns:inkscape="http://www.inkscape.org/namespaces/inkscape"
   width="340px"
   height="390px"
   viewBox="0 0 340 390"
   version="1.1"
   id="svg11"
   sodipodi:docname="shapes.svg"
   inkscape:version="0.92.4 (5da689c313, 2019-01-14)">
  <metadata
     id="metadata17">
    <rdf:RDF>
      <cc:Work
         rdf:about="">
        <dc:format>image/svg+xml</dc:format>
        <dc:type
           rdf:resource="http://purl.org/dc/dcmitype/StillImage" />
      </cc:Work>
    </rdf:RDF>
  </metadata>
  <defs
     id="defs15" />
  <sodipodi:namedview
     pagecolor="#ffffff"
     bordercolor="#666666"
     borderopacity="1"
     objecttolerance="10"
     gridtolerance="10"
     guidetolerance="10"
     inkscape:pageopacity="0"
     inkscape:pageshadow="2"
     inkscape:window-width="724"
     inkscape:window-height="777"
     id="namedview13"
     showgrid="false"
     inkscape:zoom="0.60512821"
     inkscape:cx="207.4389"
     inkscape:cy="9.4715372"
     inkscape:window-x="809"
     inkscape:window-y="97"
     inkscape:window-maximized="0"
     inkscape:current-layer="surface1" />
  <g
     id="surface1">
    <path
       style="color:#000000;font-style:normal;font-variant:normal;font-weight:normal;font-stretch:normal;font-size:medium;line-height:normal;font-family:sans-serif;font-variant-ligatures:normal;font-variant-position:normal;font-variant-caps:normal;font-variant-numeric:normal;font-variant-alternates:normal;font-feature-settings:normal;text-indent:0;text-align:start;text-decoration:none;text-decoration-line:none;text-decoration-style:solid;text-decoration-color:#000000;letter-spacing:normal;word-spacing:normal;text-transform:none;writing-mode:lr-tb;direction:ltr;text-orientation:mixed;dominant-baseline:auto;baseline-shift:baseline;text-anchor:start;white-space:normal;shape-padding:0;clip-rule:nonzero;display:inline;overflow:visible;visibility:visible;opacity:1;isolation:auto;mix-blend-mode:normal;color-interpolation:sRGB;color-interpolation-filters:linearRGB;solid-color:#000000;solid-opacity:1;vector-effect:none;fill:#000000;fill-opacity:1;fill-rule:nonzero;stroke:none;stroke-width:20.00000954;stroke-linecap:butt;stroke-linejoin:miter;stroke-miterlimit:4;stroke-dasharray:none;stroke-dashoffset:0;stroke-opacity:1;color-rendering:auto;image-rendering:auto;shape-rendering:auto;text-rendering:auto;enable-background:accumulate"
       d="M 110 10 C 88.026598 10 70 28.026557 70 50 L 70 140.5 C 33.94275 163.63233 10 204.07471 10 250 C 10 321.67798 68.322017 380 140 380 C 204.87775 380 258.81089 332.21762 268.46094 270 L 290 270 C 311.97343 270 330 251.97343 330 230 L 330 50 C 330 28.026574 311.97343 10 290 10 L 110 10 z M 110 30 L 290 30 C 301.16721 30 310 38.832794 310 50 L 310 230 C 310 241.16721 301.16721 250 290 250 L 270 250 C 270 178.32203 211.67798 120 140 120 C 122.28121 120 105.38184 123.56897 89.974609 130.01758 L 90 129.97461 L 90 50 C 90 38.832811 98.832846 30 110 30 z M 140 140 C 200.8689 140 250 189.13109 250 250 C 250 253.08717 249.86703 256.14216 249.61914 259.16406 C 249.61867 259.16862 249.61561 259.17317 249.61523 259.17773 L 249.57617 259.64453 C 244.70908 315.97441 197.61776 360 140 360 C 79.131093 360 30 310.8689 30 250 C 30 189.1311 79.13109 140 140 140 z "
       id="path832" />
  </g>
</svg>
