<?xml version="1.0" encoding="UTF-8" standalone="no"?>
<svg
   xmlns:dc="http://purl.org/dc/elements/1.1/"
   xmlns:cc="http://creativecommons.org/ns#"
   xmlns:rdf="http://www.w3.org/1999/02/22-rdf-syntax-ns#"
   xmlns:svg="http://www.w3.org/2000/svg"
   xmlns="http://www.w3.org/2000/svg"
   xmlns:sodipodi="http://sodipodi.sourceforge.net/DTD/sodipodi-0.dtd"
   xmlns:inkscape="http://www.inkscape.org/namespaces/inkscape"
   width="370px"
   height="430px"
   viewBox="0 0 370 430"
   version="1.1"
   id="svg7"
   sodipodi:docname="text.svg"
   inkscape:version="0.92.4 (5da689c313, 2019-01-14)">
  <metadata
     id="metadata13">
    <rdf:RDF>
      <cc:Work
         rdf:about="">
        <dc:format>image/svg+xml</dc:format>
        <dc:type
           rdf:resource="http://purl.org/dc/dcmitype/StillImage" />
      </cc:Work>
    </rdf:RDF>
  </metadata>
  <defs
     id="defs11" />
  <sodipodi:namedview
     pagecolor="#ffffff"
     bordercolor="#666666"
     borderopacity="1"
     objecttolerance="10"
     gridtolerance="10"
     guidetolerance="10"
     inkscape:pageopacity="0"
     inkscape:pageshadow="2"
     inkscape:window-width="1113"
     inkscape:window-height="480"
     id="namedview9"
     showgrid="false"
     inkscape:zoom="0.54883721"
     inkscape:cx="-98.580984"
     inkscape:cy="227.02594"
     inkscape:window-x="10"
     inkscape:window-y="11"
     inkscape:window-maximized="0"
     inkscape:current-layer="svg7" />
  <g
     id="surface1"
     style="fill:none;fill-opacity:1">
    <path
       id="path4520"
       style="color:#000000;font-style:normal;font-variant:normal;font-weight:normal;font-stretch:normal;font-size:medium;line-height:normal;font-family:sans-serif;font-variant-ligatures:normal;font-variant-position:normal;font-variant-caps:normal;font-variant-numeric:normal;font-variant-alternates:normal;font-feature-settings:normal;text-indent:0;text-align:start;text-decoration:none;text-decoration-line:none;text-decoration-style:solid;text-decoration-color:#000000;letter-spacing:normal;word-spacing:normal;text-transform:none;writing-mode:lr-tb;direction:ltr;text-orientation:mixed;dominant-baseline:auto;baseline-shift:baseline;text-anchor:start;white-space:normal;shape-padding:0;clip-rule:nonzero;display:inline;overflow:visible;visibility:visible;opacity:1;isolation:auto;mix-blend-mode:normal;color-interpolation:sRGB;color-interpolation-filters:linearRGB;solid-color:#000000;solid-opacity:1;vector-effect:none;fill:#000000;fill-opacity:1;fill-rule:nonzero;stroke:none;stroke-width:19.99999809;stroke-linecap:butt;stroke-linejoin:round;stroke-miterlimit:4;stroke-dasharray:none;stroke-dashoffset:0;stroke-opacity:1;color-rendering:auto;image-rendering:auto;shape-rendering:auto;text-rendering:auto;enable-background:accumulate"
       d="m 40,10 a 10.000999,10.000999 0 0 0 -9.882812,8.476562 l -20,129.999998 A 10.000999,10.000999 0 0 0 20,160 h 30 a 10.000999,10.000999 0 0 0 9.140625,-5.9375 L 96.503906,70 H 140 v 285.85938 l -5.625,5.625 -48.085938,19.23828 A 10.000999,10.000999 0 0 0 80,390 v 20 a 10.000999,10.000999 0 0 0 10,10 h 190 a 10.000999,10.000999 0 0 0 10,-10 v -20 a 10.000999,10.000999 0 0 0 -6.28906,-9.27734 L 235.625,361.48438 230,355.85938 V 70 h 43.49609 l 37.36329,84.0625 A 10.000999,10.000999 0 0 0 320,160 h 30 a 10.000999,10.000999 0 0 0 9.88281,-11.52344 l -20,-129.999998 A 10.000999,10.000999 0 0 0 330,10 Z m 8.574219,20 H 321.42578 l 16.91406,110 H 326.50391 L 289.14062,55.9375 A 10.000999,10.000999 0 0 0 280,50 h -60 a 10.000999,10.000999 0 0 0 -10,10 v 300 a 10.000999,10.000999 0 0 0 2.92969,7.07031 l 10,10 a 10.000999,10.000999 0 0 0 3.35937,2.20703 L 270,396.77734 V 400 H 100 v -3.22266 l 43.71094,-17.5 a 10.000999,10.000999 0 0 0 3.35937,-2.20703 l 10,-10 A 10.000999,10.000999 0 0 0 160,360 V 60 A 10.000999,10.000999 0 0 0 150,50 H 90 a 10.000999,10.000999 0 0 0 -9.140625,5.9375 L 43.496094,140 H 31.660156 Z" />
  </g>
</svg>
